<?xml version="1.0" encoding="UTF-8" standalone="no"?>
<svg
   xmlns:dc="http://purl.org/dc/elements/1.1/"
   xmlns:cc="http://creativecommons.org/ns#"
   xmlns:rdf="http://www.w3.org/1999/02/22-rdf-syntax-ns#"
   xmlns:svg="http://www.w3.org/2000/svg"
   xmlns="http://www.w3.org/2000/svg"
   version="1.1"
   id="svg2"
   height="386.07013"
   width="544.8598">
  <title
     id="title4887">Crazy Horse</title>
  <defs
     id="defs4">
    <linearGradient
       id="linearGradient4304">
      <stop
         id="stop4306"
         offset="0"
         style="stop-color:#ff8080;stop-opacity:1;" />
      <stop
         style="stop-color:#ff8080;stop-opacity:1;"
         offset="0.82263035"
         id="stop4312" />
      <stop
         id="stop4308"
         offset="1"
         style="stop-color:#ff8080;stop-opacity:0;" />
    </linearGradient>
    <linearGradient
       id="linearGradient4183">
      <stop
         id="stop4185"
         offset="0"
         style="stop-color:#ffffff;stop-opacity:1;" />
      <stop
         style="stop-color:#ffffff;stop-opacity:1;"
         offset="0.80713069"
         id="stop4187" />
      <stop
         style="stop-color:#ff0000;stop-opacity:1;"
         offset="1"
         id="stop4189" />
    </linearGradient>
  </defs>
  <metadata
     id="metadata7">
    <rdf:RDF>
      <cc:Work
         rdf:about="">
        <dc:format>image/svg+xml</dc:format>
        <dc:type
           rdf:resource="http://purl.org/dc/dcmitype/StillImage" />
        <dc:title>Crazy Horse</dc:title>
        <cc:license
           rdf:resource="http://artlibre.org/licence/lal" />
        <dc:date>19.10.2015</dc:date>
        <dc:creator>
          <cc:Agent>
            <dc:title>Marek Srejma</dc:title>
          </cc:Agent>
        </dc:creator>
        <dc:publisher>
          <cc:Agent>
            <dc:title>Marek Srejma</dc:title>
          </cc:Agent>
        </dc:publisher>
        <dc:identifier>Marek Srejma</dc:identifier>
        <dc:rights>
          <cc:Agent>
            <dc:title>http://artlibre.org/licence/lal</dc:title>
          </cc:Agent>
        </dc:rights>
        <dc:subject>
          <rdf:Bag>
            <rdf:li>horse</rdf:li>
            <rdf:li>crazy</rdf:li>
            <rdf:li>mad</rdf:li>
          </rdf:Bag>
        </dc:subject>
      </cc:Work>
      <cc:License
         rdf:about="http://artlibre.org/licence/lal">
        <cc:permits
           rdf:resource="http://creativecommons.org/ns#Reproduction" />
        <cc:permits
           rdf:resource="http://creativecommons.org/ns#Distribution" />
        <cc:permits
           rdf:resource="http://creativecommons.org/ns#DerivativeWorks" />
        <cc:requires
           rdf:resource="http://creativecommons.org/ns#ShareAlike" />
        <cc:requires
           rdf:resource="http://creativecommons.org/ns#Notice" />
        <cc:requires
           rdf:resource="http://creativecommons.org/ns#Attribution" />
      </cc:License>
    </rdf:RDF>
  </metadata>
  <g
     transform="translate(-271.45237,-191.37724)"
     style="display:inline"
     id="layer2">
    <path
       id="path3059"
       d="m 399.58789,293.09961 c -8.03828,1.76459 -15.78336,4.61582 -23.76367,6.60156 -7.14574,0.2338 -13.39046,5.59432 -20.49024,4.48242 -5.70111,-3.6577 -12.48132,-5.13305 -19.17382,-5.57812 -9.54972,-1.04808 -20.40719,1.16916 -26.28321,7.23242 -6.86732,0.18117 -17.54465,1.6073 -23.375,6.68555 -5.2917,4.92991 -1.61149,12.58686 1.13477,17.86328 1.73671,7.50742 -3.33127,14.10271 -7.23242,19.98047 -3.26075,6.94584 6.31209,10.21589 7.25195,16.34375 0.92363,8.07193 -6.66025,12.57029 -11.24414,17.86914 -4.35107,4.63244 -6.75953,11.90764 -3.33594,17.76562 0.78562,2.59043 2.28803,3.60078 3.99219,3.66016 l -1.48438,0.86523 c 0.31214,-0.0697 0.62341,-0.13928 0.93555,-0.20898 2.40412,-0.28029 4.6561,-0.9012 6.97461,-1.4375 1.38346,-0.32593 2.77675,-0.62493 4.16406,-0.93945 l -0.38476,0.20703 c 0.70316,3.26632 1.55156,6.49158 2.48437,9.69922 0.69736,2.73997 1.45618,5.4637 2.29297,8.16406 0.83204,2.16135 1.6491,4.34642 2.92188,6.29101 1.37269,1.65568 3.24261,2.61138 5.34179,2.92969 2.09094,0.19227 4.14508,-0.0412 6.16211,-0.58789 1.36978,-0.54068 2.68432,-1.19465 4.06055,-1.7207 0.51837,-0.4859 0.9603,-0.87656 1.38281,-1.24805 0.0573,1.35512 0.18912,2.69798 0.59961,3.99609 0.806,2.65797 3.84561,1.32511 5.81055,1.3125 2.00126,-0.21586 3.95377,-0.65896 5.86523,-1.24218 l -0.0117,0.006 c 1.20522,1.49374 2.3398,3.0433 3.47071,4.59375 1.09814,1.56666 2.33243,3.03182 3.6875,4.38086 1.31064,1.28421 2.82717,2.3313 4.35742,3.33398 0.56756,0.33831 1.15494,0.63968 1.74805,0.92969 l 4.16015,-2.75 c -0.5871,-0.26734 -1.15735,-0.56535 -1.72656,-0.86914 -0.936,-0.58602 -1.85505,-1.20779 -2.73047,-1.88477 l 7.24219,-3.18359 c 0.58244,-0.8835 1.12081,-1.79464 1.73047,-2.66016 1.06626,-1.48458 2.16995,-2.94386 3.42383,-4.27734 1.31941,-1.36983 2.66885,-2.70868 4.20117,-3.8457 1.85378,-1.44919 3.65684,-2.95618 5.50195,-4.41602 1.4515,-1.17402 2.8768,-2.37973 4.2832,-3.60742 1.38521,-1.24246 2.84837,-2.40315 4.13868,-3.7461 1.24936,-1.39898 2.41857,-2.86501 3.65624,-4.27343 1.31257,-1.39372 2.59625,-2.81537 3.75977,-4.33789 1.16444,-1.46119 2.44569,-2.8211 3.61914,-4.2754 1.2612,-1.47395 2.66664,-2.81027 4.08594,-4.13085 1.38311,-1.25134 2.81392,-2.44679 4.37695,-3.47071 1.8185,-1.30888 3.6957,-2.52238 5.61719,-3.67578 -2.50809,1.44215 -10.02742,5.77543 -7.52344,4.32617 3.36954,-1.95022 6.74838,-3.8854 10.1211,-5.83007 0.13694,-0.079 0.18284,-0.10648 0.41015,-0.23829 1.40632,-0.76556 2.91794,-1.57338 3.97852,-2.08203 3.95494,-2.10823 3.15953,-1.72109 9.45508,-5.39258 1.56851,-0.84133 3.13324,-1.68733 4.7246,-2.48632 2.37557,-1.18406 4.82609,-2.18422 7.28516,-3.18164 2.48994,-0.94481 4.99195,-1.85778 7.53125,-2.66211 2.26033,-0.68441 4.49528,-1.43828 6.74609,-2.14649 2.58629,-0.79208 5.21285,-1.45058 7.84376,-2.07422 3.08118,-0.70604 6.21028,-1.17811 9.27539,-1.95703 3.09629,-0.65308 6.18323,-1.38549 9.21875,-2.27734 2.54373,-0.69916 5.05092,-1.54957 7.67968,-1.89258 2.88501,-0.47192 5.79722,-0.77929 8.67774,-1.2793 2.53077,-0.42021 5.06023,-0.85034 7.60156,-1.19726 2.13445,-0.34516 4.25122,-0.76747 6.40039,-1.01758 1.55837,-0.0706 3.11975,-0.14237 4.6582,-0.41992 l 8.42969,-6.44531 c -1.51688,0.4433 -3.09618,0.5757 -4.66601,0.67578 -2.19641,0.17698 -4.35837,0.60161 -6.52735,0.9707 -2.5557,0.39136 -5.11027,0.79669 -7.6582,1.23633 -2.88497,0.48934 -5.78046,0.89422 -8.67774,1.29883 -2.64488,0.31794 -5.2022,1.03725 -7.75,1.7832 -3.04553,0.92493 -6.14146,1.68193 -9.24609,2.3789 -3.0563,0.74859 -6.15827,1.27884 -9.23633,1.92579 -2.63518,0.56464 -5.24541,1.24333 -7.83789,1.97851 -2.26692,0.6511 -4.4996,1.41731 -6.74805,2.12891 -2.55321,0.79662 -5.06933,1.69781 -7.57812,2.62305 -2.46932,0.98241 -4.9429,1.9619 -7.34375,3.10351 -2.42806,1.20043 -4.80328,2.49991 -7.19531,3.76953 -3.42332,1.89768 -4.39448,2.46583 -8.21094,4.70313 -4.88737,2.53426 -9.61412,5.34473 -14.36719,8.12695 -1.6999,0.98377 -3.40288,1.96283 -5.10351,2.94531 -0.4498,0.25985 -1.79729,1.04139 -1.34766,0.78125 10.52428,-6.08913 10.2756,-5.94829 -2.61719,1.51953 -2.00484,1.1267 -3.82141,2.53076 -5.73047,3.79883 -1.56781,1.04155 -2.95614,2.31677 -4.32031,3.60547 -1.44349,1.33567 -2.80289,2.73525 -4.04297,4.25977 -1.20947,1.43623 -2.46064,2.82288 -3.61132,4.30664 -1.16423,1.49523 -2.46713,2.87393 -3.7793,4.23828 -1.1572,1.48438 -2.37858,2.9138 -3.65235,4.29883 -1.41702,1.19119 -2.8183,2.39751 -4.17773,3.65429 -1.45086,1.14845 -2.81262,2.40888 -4.28906,3.5293 -1.77792,1.54194 -3.65179,2.95509 -5.4961,4.41406 -1.51303,1.21216 -2.9266,2.55005 -4.17968,4.02735 -1.21262,1.39581 -2.36243,2.8573 -3.3711,4.4082 -0.1564,0.25487 -0.32486,0.50054 -0.48828,0.75 -0.16296,-0.14624 -0.33112,-0.2867 -0.48828,-0.43945 -1.35366,-1.31325 -2.55022,-2.77405 -3.64844,-4.30664 -0.94718,-1.29976 -1.91398,-2.58445 -2.87109,-3.87696 0.52896,-0.22351 1.06278,-0.43675 1.58594,-0.67187 1.44445,-0.40435 9.08904,-3.45812 11.83203,-4.50196 3.36725,-0.69146 12.45675,-3.64094 13.43945,-8.51953 0.0547,-4.43022 0.0344,-8.86615 0.0703,-13.29882 -0.18772,-2.6462 -0.0344,-5.34653 -0.46484,-7.96876 1.36587,0.01 2.73183,0.0182 4.09766,0.0313 2.31475,0.017 4.62934,0.0162 6.94336,0.0625 l 0,-0.002 11.23828,-6.22265 c -2.38889,0.0455 -4.77841,0.0435 -7.16797,0.0605 -4.47352,0.0408 -8.94805,0.0754 -13.42188,0.0605 -3.69584,0.004 -7.39223,-0.0518 -11.08789,-0.0625 -2.97971,0.006 -5.87158,0.55981 -8.73633,1.12305 -3.42244,0.67226 -6.899,1.1499 -10.37109,1.64257 -3.53683,0.49667 -7.01307,1.19792 -10.48438,1.90625 -3.98598,0.75869 -7.86907,1.78814 -11.8125,2.66211 -3.48421,0.76647 -6.98019,1.50276 -10.45312,2.29883 -2.25861,0.46668 -4.45336,1.08303 -6.74414,1.45508 -0.32873,0.0516 -0.65758,0.1027 -0.98633,0.1543 l -2.01172,1.17187 c 0.24019,-0.31167 0.46402,-0.62406 0.64844,-0.93359 -4.77728,-4.4904 -6.13149,-11.86435 -1.29492,-17.17774 3.77946,-6.57096 12.47536,-10.06817 13.06836,-18.37109 2.14828,-7.53148 -8.81925,-10.7944 -7.46094,-18.125 3.33601,-5.25303 7.41523,-10.55323 7.87109,-16.99219 -2.31488,-17.77787 -6.58419,-19.25428 1.7793,-19.75195 12.09325,0.55032 18.36795,-4.80715 19.07422,-5.47852 6.40593,-1.37467 16.06725,-0.10577 23.49805,2.63477 5.78139,4.834 12.87794,3.05185 19.07812,-0.10352 10.3825,-1.56743 20.12188,-5.75382 30.38867,-7.82617 2.81004,-2.14834 5.61977,-4.29679 8.42969,-6.44531 z m 7.61914,88.68164 c -1.90193,1.10479 -2.71681,1.57936 -0.41797,0.2207 0.1403,-0.0718 0.27805,-0.14826 0.41797,-0.2207 z m -60.81055,13.51758 c 2.09839,-0.007 4.1966,-4.4e-4 6.29493,0.01 l -1.02539,0.55664 c -1.82146,0.65476 0.22509,3.11374 -0.29688,4.60938 0.34281,4.67931 0.34483,9.37413 0.23242,14.06445 0.62326,4.34744 -0.0756,3.36008 -0.75781,6.20508 -3.86223,0.91474 -5.89568,1.84764 -8.95313,2.1875 -1.10349,0.55841 -4.91307,2.40302 -8.32617,4.03906 -4.32104,1.96769 -8.90297,3.49867 -13.68554,3.69336 -2.72002,1.08445 -3.52769,-1.77903 -3.49219,-3.875 -0.0324,-2.71264 -0.353,-5.41153 -0.3125,-8.125 -0.14187,-6.70827 0.15946,-13.41111 0.30664,-20.11523 -1.02247,0.52087 -2.04591,1.04351 -3.06836,1.56445 -1.19458,0.34033 -1.68456,1.0943 -1.33984,2.35547 -0.10168,6.93566 -0.27234,13.87258 -0.24414,20.81055 0.0795,0.77394 0.11059,1.55585 0.1289,2.33984 -0.88762,0.0524 -1.95008,0.11607 -3.39453,0.1582 -1.89709,-0.0779 -3.56138,-0.74727 -4.86719,-2.17968 -1.24576,-1.84715 -1.98834,-3.97471 -2.79687,-6.03907 -0.85,-2.68696 -1.61081,-5.4015 -2.32031,-8.1289 -0.70399,-2.36565 -1.34686,-4.74725 -1.88477,-7.1543 3.05459,-0.70366 6.08208,-1.47591 9.17383,-2.07812 3.49145,-0.63598 6.91758,-1.47326 10.45312,-1.97852 3.46305,-0.46615 6.9293,-0.92344 10.35157,-1.54492 2.81675,-0.52113 5.60093,-1.17291 8.51367,-1.3125 3.77003,-0.0108 7.54035,-0.0665 11.31054,-0.0625 z"
       style="fill:#000000;fill-opacity:1;fill-rule:nonzero;stroke:none" />
    <path
       id="path3067"
       d="m 313.34923,319.67028 c 1.04937,2.09652 2.05672,4.23626 2.56041,6.5388 0.75216,2.80622 1.35675,5.90929 0.23007,8.70184 -1.05679,2.59967 -2.82131,4.81631 -4.45617,7.06661 -0.54102,0.59274 -0.89826,1.43029 -1.73602,1.63319 -2.98693,1.2847 -5.97387,2.5694 -8.9608,3.8541 1.16292,-1.46534 2.33681,-2.92164 3.35219,-4.49609 0.77298,-1.02978 1.46933,-2.10311 2.06243,-3.247 1.33127,-2.17394 1.14692,-4.87561 0.58897,-7.25937 -0.47425,-1.95745 -0.89293,-3.94953 -1.83929,-5.74725 -0.0692,-0.64939 -1.3183,-1.54325 -0.73797,-1.95673 2.97873,-1.69602 5.95744,-3.3921 8.93618,-5.0881 z"
       style="fill:#000000;fill-opacity:1;fill-rule:nonzero;stroke:none" />
    <path
       id="path3069"
       d="m 361.20749,335.15078 c 2.15219,2.55198 4.98066,4.39028 7.30634,6.7677 1.66964,1.55191 3.7025,2.63476 5.7066,3.68171 1.33554,0.80002 2.66757,2.16413 2.42276,3.85821 -0.38307,3.101 -2.48166,5.57827 -4.24996,8.02317 -0.97848,1.13872 -2.05857,2.29358 -3.39316,3.00533 -3.18903,1.23902 -6.37806,2.47805 -9.56709,3.71707 1.72422,-0.92602 3.16728,-2.30367 4.32546,-3.86827 1.32753,-1.68064 2.52141,-3.50637 3.32343,-5.49613 0.89149,-1.68541 -0.57975,-3.17432 -2.08027,-3.75123 -2.39682,-1.18703 -4.55018,-2.80909 -6.45388,-4.6801 -1.91517,-1.67683 -3.87229,-3.30405 -5.69623,-5.08286 -0.86567,-0.47291 -0.59193,-0.83119 0.15318,-1.1479 2.73427,-1.67557 5.46855,-3.35113 8.20282,-5.0267 z"
       style="fill:#000000;fill-opacity:1;fill-rule:nonzero;stroke:none" />
    <path
       id="path3073"
       d="m 393.92781,312.213 c 4.77679,-2.04755 10.3224,-5.02882 14.61605,-7.22874 -1.61964,1.46685 -5.77093,5.07115 -6.79472,5.87313 -5.5403,2.69806 -9.89778,4.92334 -18.40438,9.23486 3.39173,-2.80887 6.92786,-5.4313 10.58305,-7.87925 z"
       style="fill:#000000;fill-opacity:1;fill-rule:nonzero;stroke:none" />
    <path
       id="path3087"
       d="m 460.10674,239.65988 c -6.47805,4.47942 -13.60564,8.01611 -21.10411,10.42845 -4.15801,1.45542 -8.17111,3.27992 -12.13442,5.19353 -0.73604,0.33686 -1.8359,0.82095 -0.69716,0.0416 2.51401,-1.9784 5.02801,-3.9568 7.54202,-5.9352 3.21222,-1.45791 6.39957,-2.9772 9.71669,-4.18927 4.46897,-1.72416 9.11868,-3.05046 13.30857,-5.42633 1.03915,-0.55322 -1.12979,0.6934 -1.45802,0.89982 -2.30829,1.35683 -4.5938,2.75489 -6.92328,4.07423 1.02953,-0.72098 2.08819,-1.39733 3.29327,-1.77806 2.81881,-1.10293 5.63763,-2.20585 8.45644,-3.30877 z"
       style="fill:#000000;fill-opacity:1;fill-rule:nonzero;stroke:none" />
    <path
       id="path3095"
       d="m 565.37305,204.75195 c -1.28125,0.56315 -2.5625,1.12631 -3.84375,1.68946 3.21177,-1.73816 -0.82336,-1.00448 -2.59307,-1.09318 -10.34125,0.24753 -20.75733,-0.61369 -31.01599,1.08847 -7.55437,0.64223 -13.74619,5.3786 -19.4106,9.98992 -4.71084,3.74762 -10.19535,6.6159 -13.93565,11.45931 -3.66516,3.61371 -6.97829,7.61015 -11.25368,10.55157 3.2487,-1.29687 6.4974,-2.59375 9.7461,-3.89062 5.49458,-4.14172 9.74264,-9.62477 14.70409,-14.33648 3.17902,-2.42445 6.49703,-4.66404 9.667,-7.10298 8.1508,-1.76822 16.52381,-1.84501 24.82814,-1.72797 3.44464,0.26941 8.82735,-0.57177 11.00587,0.54655 -3.70676,6.473 -7.55119,12.98973 -13.05401,18.13461 -6.69755,6.99544 -13.99064,13.36432 -21.12781,19.89684 -3.31852,3.33158 -7.07011,6.28728 -10.04149,9.93351 -1.30208,1.78845 -1.91748,3.98334 0.62675,2.17759 2.93648,-1.35163 5.87295,-2.70325 8.80943,-4.05488 1.74694,-4.17458 5.80918,-6.66199 8.77553,-9.9053 7.24305,-6.8873 14.86569,-13.36752 21.83669,-20.54109 5.45107,-5.02747 9.70303,-11.13248 13.35462,-17.54685 1.04963,-1.71249 2.05231,-3.4567 2.92183,-5.26848 z m -50.81836,9.15039 c -1.47129,0.93611 -1.73157,0.85088 0,0 z"
       style="fill:#000000;fill-opacity:1;fill-rule:nonzero;stroke:none" />
    <path
       d="m 541.86942,276.28964 c 8.66794,-4.02452 17.72158,-7.13488 26.68229,-10.42904 13.15405,-4.85644 26.53638,-9.18364 39.26352,-15.10954 0,0 -7.4577,5.91342 -7.4577,5.91342 l 0,0 c -12.5505,5.37737 -25.61599,9.43277 -38.3567,14.32249 -9.59101,3.62524 -19.22161,7.20273 -28.38837,11.82828 0,0 8.25696,-6.52561 8.25696,-6.52561 z"
       id="path3103"
       style="fill:#000000;fill-opacity:1;fill-rule:nonzero;stroke:none" />
    <path
       id="path3105"
       d="m 555.27078,283.64335 c 4.15622,-1.26051 8.54824,-1.47944 12.79688,-2.33378 14.1487,-2.36862 28.21265,-5.21458 42.36041,-7.59183 -2.34406,1.76146 -4.68812,3.52291 -7.03218,5.28437 -14.87798,2.16665 -29.61185,5.17497 -44.3623,8.05647 -4.10038,0.85437 -8.18226,1.81583 -12.19227,3.03043 2.80982,-2.14855 5.61964,-4.29711 8.42946,-6.44566 z"
       style="fill:#000000;fill-opacity:1;fill-rule:nonzero;stroke:none" />
    <path
       id="path3107"
       d="m 574.64752,296.52794 c 3.16455,-0.76065 6.45238,-0.81212 9.65748,-1.35538 6.88639,-1.04958 13.8348,-1.58052 20.7893,-1.89906 2.54861,-0.13959 5.10025,-0.2127 7.65024,-0.32179 -2.40349,1.75886 -4.80697,3.51773 -7.21046,5.27659 -10.25841,0.20042 -20.53833,0.87433 -30.62876,2.82017 -2.91628,0.54151 -5.8177,1.16352 -8.69843,1.87025 2.81354,-2.13026 5.62709,-4.26052 8.44063,-6.39078 z"
       style="fill:#000000;fill-opacity:1;fill-rule:nonzero;stroke:none" />
    <path
       d="m 585.53066,307.99472 c 6.91291,-0.56354 13.84848,-0.8742 20.78139,-1.15794 4.16661,-0.17795 8.3306,-0.34966 12.50036,-0.41612 0,0 -7.87753,5.72229 -7.87753,5.72229 l 0,0 c -4.02582,-0.0757 -8.04866,-0.0338 -12.07211,0.1566 -7.283,0.34707 -14.5712,0.778 -21.76869,2.00953 0,0 8.43658,-6.31436 8.43658,-6.31436 z"
       id="path3109"
       style="fill:#000000;fill-opacity:1;fill-rule:nonzero;stroke:none" />
    <path
       id="path3111"
       d="m 605.42357,323.31024 c 2.83939,0.50181 5.62824,1.25295 8.45845,1.793 2.34128,0.40069 4.63665,1.07459 6.81669,2.01886 -2.83255,1.89814 -5.66509,3.79629 -8.49764,5.69443 -2.65656,-0.99761 -5.42504,-1.64336 -8.20441,-2.18787 -2.418,-0.52541 -4.85414,-0.9727 -7.30813,-1.29334 2.91168,-2.00836 5.82336,-4.01672 8.73504,-6.02508 z"
       style="fill:#000000;fill-opacity:1;fill-rule:nonzero;stroke:none" />
    <path
       id="path3113"
       d="m 701.91406,299.20898 c -5.05171,2.60318 -10.26845,4.94658 -15.41211,7.38086 -2.11934,1.13622 -3.0116,3.78925 -4.67968,5.50391 -5.79325,8.22997 -11.85881,14.00124 -13.60547,16.82227 -6.32147,3.27602 -7.69442,3.96184 -15.3418,5.06445 -6.82538,0.83557 -13.34358,3.73456 -20.30664,3.42969 L 624,343.63477 c 3.76848,0.009 7.5391,-0.4609 11.19336,-1.38086 6.48893,-1.92775 13.27738,-2.48376 19.80273,-4.22852 5.52189,-2.08303 10.73983,-4.94665 15.77149,-8.01562 7.95989,-4.81571 13.85435,-12.24637 19.02148,-19.83008 0.76964,-1.04119 2.68434,-2.71299 4.78125,-4.47071 4.1675,1.79293 8.51083,3.18212 12.51953,5.32422 7.31821,3.93052 14.86734,7.71133 21.02344,13.39063 5.30242,5.44465 10.65967,11.05589 14.19531,17.86133 4.64294,8.14094 8.38375,17.12041 8.71485,26.60156 -2.73318,4.00837 -5.47261,8.66201 -7.95899,12.15234 -3.1527,4.92009 -7.02633,9.30557 -10.99804,13.57032 -4.67299,5.34531 -6.86388,12.31255 -8.12891,19.16992 l 8.54688,-5.86328 c 0.71326,-2.40485 1.03038,-5.07065 1.93554,-7.48047 1.27506,-4.24626 3.62652,-8.07399 6.55274,-11.38086 3.4046,-3.73334 6.74563,-7.54118 9.55078,-11.75781 2.9073,-4.04743 5.46117,-8.33455 8.30273,-12.42383 l 1.50195,-0.77344 c -0.26388,-4.90175 -1.53458,-10.22903 -2.89843,-14.30859 -2.78015,-6.77866 -5.98023,-13.48085 -10.30078,-19.42774 -4.69026,-5.40402 -9.03512,-11.30308 -14.98829,-15.41016 -4.49309,-3.45085 -9.59341,-5.93288 -14.50585,-8.70507 -4.94154,-3.00907 -10.63462,-4.33383 -15.72071,-7.03907 z"
       style="fill:#000000;fill-opacity:1;fill-rule:nonzero;stroke:none" />
    <path
       id="path3123"
       d="m 654.39245,398.23131 c -7.07279,4.31927 -14.48658,8.40969 -20.05896,14.68357 -8.32151,7.80001 -16.82006,15.50461 -26.45175,21.67697 -4.31965,2.95839 -7.85695,7.07486 -9.61473,12.04892 -2.01657,4.25163 -4.08439,8.92787 -8.01836,11.71529 -3.47439,1.38522 -6.94877,2.77043 -10.42316,4.15565 5.08626,-4.26838 7.36176,-10.67808 10.17464,-16.46499 4.3997,-7.16983 12.58674,-10.3955 18.725,-15.76789 7.36454,-5.94095 14.12381,-12.58908 21.03019,-19.02921 4.4463,-3.51297 9.40131,-6.37031 14.2912,-9.17964 3.44865,-1.27956 6.89729,-2.55911 10.34593,-3.83867 z"
       style="fill:#000000;fill-opacity:1;fill-rule:nonzero;stroke:none" />
    <path
       id="path3131"
       d="m 579.74422,465.70303 c -0.76844,6.29199 -2.27649,12.46328 -3.2492,18.72221 -0.41954,3.08768 -0.351,6.2091 -0.34356,9.31673 -1.2481,0.63639 -2.49619,1.27279 -3.74429,1.90918 -0.0367,-3.96537 -0.0609,-7.96742 0.78598,-11.86379 0.99204,-5.37465 2.20629,-10.71887 2.77689,-16.1613 1.25806,-0.64101 2.51611,-1.28205 3.77418,-1.92303 z"
       style="fill:#000000;fill-opacity:1;fill-rule:nonzero;stroke:none" />
    <path
       d="m 607.1317,524.64726 c 1.40741,0.9489 2.91196,1.72512 4.23419,2.79563 1.23989,1.28595 0.9008,2.72694 0.28126,4.21197 -0.50122,0.98095 -0.22861,0.49502 -0.82067,1.45618 0,0 -3.83227,1.68651 -3.83227,1.68651 l 0,0 c 0.60335,-0.91773 0.32433,-0.45358 0.83995,-1.39072 0.57276,-1.2974 1.12828,-2.56043 -0.01,-3.74024 -1.33284,-1.0588 -2.849,-1.8283 -4.27281,-2.7551 0,0 3.57987,-2.26423 3.57987,-2.26423 z"
       id="path3137"
       style="fill:#000000;fill-opacity:1;fill-rule:nonzero;stroke:none" />
    <path
       id="path3139"
       d="m 597.66602,531.2832 -3.73243,2.01953 c 0.55964,2.32871 1.00819,5.16796 -1.01757,6.96485 -2.43297,2.3823 -4.87097,4.76843 -7.38672,7.0664 -2.89902,2.21993 -5.37536,4.90295 -7.35547,7.97461 -1.9282,3.11883 -3.87685,6.26742 -5.36524,9.62696 -0.52427,2.07639 -1.67878,4.08018 -1.57226,6.26172 0.21846,1.26944 1.59589,-0.67245 2.34179,-0.86329 2.60099,-1.43499 1.61309,-5.36629 3.29297,-7.6875 2.48964,-4.86431 5.12625,-9.79586 8.93946,-13.77148 3.6806,-3.16429 7.25415,-6.46048 10.64453,-9.9375 2.25172,-1.91789 1.76336,-5.09855 1.21094,-7.6543 z m 34.4746,33.4375 -8.22851,3.41992 c -0.97478,0.94165 -1.82728,2.04616 -2.76563,3.0586 -1.43194,0.4505 -2.90228,0.76917 -4.41601,0.875 -5.28804,0.28184 -10.5988,0.0682 -15.89649,0.10547 -7.01725,0.24307 -13.90287,-1.49424 -20.90429,-1.49024 -2.46907,1.79381 -4.93714,3.58697 -7.40625,5.38086 4.82665,-0.278 9.61276,0.61407 14.40039,1.07031 7.37397,0.45409 14.77444,0.26411 22.15625,0.28321 6.20517,-0.10662 11.6245,-3.44613 16.71094,-6.64258 2.76769,-1.26487 4.26135,-4.01834 6.3496,-6.06055 z"
       style="fill:#000000;fill-opacity:1;fill-rule:nonzero;stroke:none" />
    <path
       id="path3141"
       d="m 611.09961,533.80469 -2.82422,1.60742 c 1.7646,2.2433 2.12411,4.39837 3.69121,6.15527 2.76784,4.09051 7.48149,7.60261 10.72026,11.03693 2.11755,2.10023 3.93113,4.4722 5.6315,6.91522 l 3.58789,-2.11914 c -1.72536,-2.53153 -3.61463,-4.95477 -5.80441,-7.10444 -2.92663,-3.09861 -6.27405,-5.7864 -9.04761,-9.02899 -1.97093,-2.8727 -4.35622,-4.26329 -5.95462,-7.46227 z"
       style="fill:#000000;fill-opacity:1;fill-rule:nonzero;stroke:none" />
    <path
       id="path3143"
       d="m 539.0951,456.28386 c 1.39513,6.70964 1.48604,13.62703 0.88214,20.43351 -0.27093,3.94493 0.0347,7.90222 0.49647,11.82041 -0.16302,0.83726 1.15416,2.14016 0.0374,2.49421 -1.05228,0.57561 -2.10456,1.15123 -3.15684,1.72685 -0.96041,-2.82177 -0.83951,-5.84853 -1.10663,-8.78252 -0.25567,-4.85397 0.62856,-9.67796 0.43542,-14.53276 -0.0918,-3.74144 -0.40173,-7.50329 -1.32151,-11.14064 1.24449,-0.67301 2.48919,-1.34608 3.73356,-2.01906 z"
       style="fill:#000000;fill-opacity:1;fill-rule:nonzero;stroke:none" />
    <path
       d="m 516.23796,530.56957 c 0.18401,1.68921 0.62579,3.3155 1.1477,4.92642 0.41211,0.96998 0.75318,1.96678 1.138,2.94711 0,0 -3.68353,2.04542 -3.68353,2.04542 l 0,0 c -0.35325,-1.00064 -0.69942,-2.00311 -1.11923,-2.97875 -0.51903,-1.61426 -0.97294,-3.23933 -1.21655,-4.92114 0,0 3.73361,-2.01906 3.73361,-2.01906 z"
       id="path3151"
       style="fill:#000000;fill-opacity:1;fill-rule:nonzero;stroke:none" />
    <path
       d="m 525.63679,528.95651 c 0.98429,1.24605 1.9501,2.50089 2.79588,3.84619 0.93278,1.38368 1.63494,2.88763 2.30899,4.40676 0.62929,1.37149 1.03242,2.68123 0.48901,4.1276 -0.12664,0.21326 -0.25329,0.42652 -0.37994,0.63978 0,0 -3.84614,1.69089 -3.84614,1.69089 l 0,0 c 0.13318,-0.19175 0.26637,-0.38349 0.39956,-0.57523 0.71016,-1.40175 0.2725,-2.4414 -0.31592,-3.8247 -0.66811,-1.5 -1.34364,-2.99503 -2.27197,-4.3594 -0.82762,-1.32165 -1.7709,-2.56079 -2.79755,-3.73473 0,0 3.61808,-2.21716 3.61808,-2.21716 z"
       id="path3153"
       style="fill:#000000;fill-opacity:1;fill-rule:nonzero;stroke:none" />
    <path
       d="m 529.9348,545.49823 c 1.26081,2.15695 2.27046,4.4461 3.32896,6.70562 0.95376,2.2924 2.12692,4.48725 2.94724,6.83315 0.55495,1.5398 1.09416,3.08971 1.55364,4.66123 0.21346,0.7356 0.56738,1.41744 0.88543,2.11079 0,0 -3.65196,2.06311 -3.65196,2.06311 l 0,0 c -0.32655,-0.71231 -0.69457,-1.41003 -0.91908,-2.16394 -0.44499,-1.57062 -0.98602,-3.11511 -1.51989,-4.65704 -0.776,-2.3485 -1.93213,-4.53696 -2.87557,-6.81975 -1.05567,-2.22536 -2.03237,-4.50923 -3.39144,-6.57143 0,0 3.64267,-2.16174 3.64267,-2.16174 z"
       id="path3155"
       style="fill:#000000;fill-opacity:1;fill-rule:nonzero;stroke:none" />
    <path
       d="m 508.68663,541.18334 c -1.93769,0.33849 -3.9059,0.40806 -5.86715,0.48479 -2.27084,0.24708 -4.53819,0.51889 -6.81691,0.68336 -0.76472,0.13119 -0.9703,0.12479 -1.68943,0.40981 -0.26415,0.1047 -1.01279,0.51368 -0.76907,0.36761 5.45027,-3.26653 2.56038,-1.50724 1.44337,-0.53466 -1.10824,1.08832 -1.45789,2.49668 -1.63424,3.98453 -0.14441,1.57371 -0.753,2.9893 -1.4604,4.38017 -0.52983,1.25889 -1.41351,2.30494 -2.1274,3.45219 -0.90912,1.24662 -0.56595,2.30869 0.17482,3.52676 1.16611,1.75422 2.87232,2.99919 4.49903,4.29038 1.77514,1.49428 3.72182,2.7567 5.69262,3.97277 1.93814,1.07721 3.85689,2.19088 5.82446,3.21576 1.71741,0.9638 3.47683,1.84802 5.32175,2.53974 1.88724,0.62876 3.80543,1.14588 5.73085,1.64326 2.28405,0.57945 4.57943,0.98923 6.92568,1.2083 2.54469,0.15061 5.14483,0.0182 7.65996,-0.41414 0.8715,-0.26414 1.02866,-0.26671 1.83137,-0.68484 0.2802,-0.14596 1.09318,-0.63357 0.81437,-0.48495 -2.68181,1.4296 -3.75935,2.20387 -2.02925,1.018 0,0 3.89001,-1.52706 3.89001,-1.52706 l 0,0 c -2.43751,1.65846 -4.93401,3.47341 -7.83367,4.17573 -2.54174,0.35637 -5.13825,0.50615 -7.6992,0.31361 -2.3663,-0.23901 -4.68655,-0.65616 -6.99251,-1.24154 -1.93413,-0.50809 -3.86686,-1.02039 -5.75567,-1.68161 -1.84917,-0.7173 -3.62036,-1.60179 -5.34167,-2.58703 -1.96403,-1.04992 -3.90624,-2.13882 -5.84367,-3.23673 -1.98031,-1.22285 -3.9007,-2.5395 -5.69406,-4.02691 -1.68481,-1.30493 -3.4217,-2.59317 -4.62507,-4.38683 -0.78277,-1.26232 -1.35317,-2.56763 -0.40355,-3.91928 0.65273,-1.19036 1.64306,-2.16944 2.15904,-3.44476 0.71949,-1.33938 1.35045,-2.70344 1.51827,-4.23385 0.15156,-1.5534 0.45129,-3.06182 1.5258,-4.26642 2.22811,-2.16503 5.13918,-3.9101 8.24651,-4.30573 2.27303,-0.16462 4.53376,-0.44264 6.80219,-0.65651 1.97295,-0.0852 3.96297,-0.16842 5.89461,-0.61218 0,0 -3.37179,2.57826 -3.37179,2.57826 z"
       id="path3157"
       style="fill:#000000;fill-opacity:1;fill-rule:nonzero;stroke:none" />
    <path
       id="path3161"
       d="m 678.44222,414.10129 c 1.43624,2.60897 2.25983,5.49375 3.46244,8.21096 0.96674,2.59315 2.04391,5.13986 3.17619,7.66445 0.87329,2.57006 1.3355,5.30019 2.70206,7.68322 1.66347,3.16585 3.17841,6.42701 4.28449,9.83147 0.24331,0.93652 1.00228,2.08794 -0.31894,2.37414 -0.93774,0.51264 -1.87548,1.02529 -2.81322,1.53793 -0.89204,-3.44987 -2.33128,-6.72866 -3.88199,-9.92549 -1.16703,-2.21694 -2.29534,-4.47551 -2.86725,-6.93096 -0.61618,-2.85329 -2.15784,-5.36749 -3.0929,-8.11142 -1.15015,-2.95458 -2.34089,-5.89493 -3.55386,-8.82271 -0.67371,-0.91341 -1.00196,-1.63077 0.22379,-1.98611 0.89307,-0.50849 1.78613,-1.01699 2.67919,-1.52548 z"
       style="fill:#000000;fill-opacity:1;fill-rule:nonzero;stroke:none" />
    <path
       id="path3165"
       d="m 690.91211,450.71094 -3.72266,1.48047 c -2.7874,2.10014 -5.24433,4.65789 -7.76757,7.08398 -3.11536,3.26686 -6.56527,6.17977 -9.86329,9.25391 -4.18422,4.18946 -8.71831,8.09683 -12.23047,12.89843 -2.59308,3.39542 -4.16701,7.39363 -5.35156,11.46094 -1.08805,0.42619 -2.22166,0.77719 -2.98242,1.71485 -3.0822,2.27225 -6.49889,4.09858 -9.35547,6.68164 -2.6078,2.63442 -4.78841,5.71985 -6.47461,9.01953 -1.31551,3.79405 -1.69533,7.85135 -0.52929,10.96484 -0.59758,0.41218 -1.19542,0.82414 -1.79297,1.23633 1.11928,0.17177 2.23155,0.37865 3.33984,0.60352 1.71518,1.41156 4.09451,2.0443 6.23242,2.48437 5.85339,0.93648 10.97948,1.77266 16.35938,2.60156 4.26357,0.96171 8.65162,0.68785 12.98633,0.71875 l 7.36523,-5.35156 c -1.95354,-10e-4 -3.90583,0.01 -5.85938,0.006 -2.92097,0.0998 -5.81326,-0.30989 -8.68164,-0.81055 -8.2683,-0.76192 -16.10448,-3.70973 -24.17187,-5.47461 -0.75464,0.5206 -1.50898,1.04194 -2.26367,1.5625 -1.1989,-3.43502 -0.73028,-7.33127 0.96094,-10.52734 1.92318,-3.43224 4.17811,-6.8133 7.25976,-9.3125 4.12225,-3.06321 8.49051,-6.47362 9.87695,-7.12891 0.8598,-0.37094 1.79869,-0.67396 1.80469,-1.79101 1.37443,-4.89123 3.98733,-9.36362 7.36914,-13.13867 3.71999,-4.0667 7.71726,-7.87639 11.74219,-11.63868 5.49222,-4.60528 10.13153,-10.13653 15.75,-14.59765 z"
       style="fill:#000000;fill-opacity:1;fill-rule:nonzero;stroke:none" />
    <path
       id="path3167"
       d="m 698.74226,452.97806 c -4.33678,5.90019 -10.04188,10.60274 -15.63265,15.26056 -4.32382,3.50947 -8.83921,6.80774 -12.90323,10.62199 -2.60651,2.80401 -4.85695,5.9163 -7.4836,8.70552 -0.84123,0.91259 -1.2864,2.22564 -2.61559,2.50077 -0.89984,0.3929 -1.79967,0.78579 -2.69951,1.17869 2.03502,-3.10391 4.83446,-5.60548 7.04525,-8.58106 2.8919,-3.71805 6.83086,-6.38478 10.40131,-9.39019 6.42215,-5.00969 12.82905,-10.14962 18.23658,-16.27199 0.94762,-0.84527 1.28267,-2.37947 2.5979,-2.7197 1.01785,-0.43486 2.03569,-0.86973 3.05354,-1.30459 z"
       style="fill:#000000;fill-opacity:1;fill-rule:nonzero;stroke:none" />
    <path
       id="path3175"
       d="m 665.63679,489.6708 c 1.74292,1.83702 3.59673,3.58841 5.13033,5.60979 1.50861,2.05151 2.29301,4.51343 3.16039,6.87886 1.72134,4.26358 1.65625,8.98697 3.14599,13.31967 0.46274,1.55201 0.99844,3.08212 1.428,4.64375 -1.22978,0.66817 -2.45956,1.33634 -3.68934,2.00451 -0.92533,-3.27677 -2.14343,-6.48384 -2.63792,-9.86898 -0.52444,-2.7756 -0.88686,-5.61539 -1.95901,-8.24836 -0.91304,-2.50464 -1.78138,-5.10895 -3.51135,-7.18963 -1.45762,-1.73695 -3.03282,-3.37965 -4.68517,-4.93245 1.20603,-0.73905 2.41205,-1.47811 3.61808,-2.21716 z"
       style="fill:#000000;fill-opacity:1;fill-rule:nonzero;stroke:none" />
    <path
       id="path3177"
       d="m 716.23796,417.71243 c 0.46232,2.51873 1.17846,5.02981 0.96287,7.61572 -0.10457,3.81576 -0.58232,7.64858 -0.005,11.45066 0.41477,4.13206 0.16473,8.30078 0.72714,12.42142 0.30725,3.16986 0.39545,6.35665 0.38217,9.54005 -1.24769,0.63578 -2.49539,1.27157 -3.74308,1.90735 0.058,-4.1515 -0.11784,-8.30441 -0.62169,-12.42665 -0.23832,-3.24049 -0.0553,-6.50182 -0.45197,-9.73492 -0.77272,-4.56148 0.20422,-9.15373 0.0231,-13.73629 -0.0518,-1.6818 -1.08215,-3.70385 -0.77852,-5.14193 1.16833,-0.6318 2.33665,-1.26366 3.505,-1.89541 z"
       style="fill:#000000;fill-opacity:1;fill-rule:nonzero;stroke:none" />
    <path
       id="path3183"
       d="m 720.52367,462.71243 c 1.73373,5.034 2.78464,10.32221 2.74116,15.6598 0.086,6.39066 -0.0617,12.78516 0.0756,19.17324 0.2537,2.95416 1.41943,5.76874 1.35637,8.76307 -0.26029,1.20899 1.06952,2.23123 -0.23749,2.67294 -0.92678,0.70309 -1.85355,1.40617 -2.78032,2.10926 -1.01454,-1.62413 -0.57651,-3.69116 -0.91111,-5.51368 -0.50074,-2.8377 -1.42484,-5.63965 -1.2086,-8.56291 -0.007,-6.33368 0.10441,-12.67067 -0.0535,-19.00346 -0.136,-4.53823 -1.17383,-9.02265 -2.71534,-13.2792 1.24409,-0.67295 2.49049,-1.34648 3.73314,-2.01906 z"
       style="fill:#000000;fill-opacity:1;fill-rule:nonzero;stroke:none" />
    <path
       id="path3187"
       d="m 732.56055,504.49219 c -0.875,0.63607 -1.75,1.27213 -2.625,1.9082 3.17296,-0.32722 5.88861,2.00898 7.69751,4.36214 1.06132,2.57234 3.55552,3.84092 5.84444,5.12682 3.75729,2.67209 6.43039,6.56393 8.96586,10.35088 0.93353,1.93949 3.1199,4.66892 2.69322,6.50804 -1.40461,0.68914 0.18678,3.87487 -2.28425,4.09675 -4.04512,1.87696 -8.3092,3.47792 -12.77811,3.90107 -2.56789,-0.0416 -5.11823,0.34295 -7.64577,0.65454 -7.76398,-0.0925 -15.36823,-2.06066 -23.13548,-2.13305 -1.41213,1.76291 -2.33329,0.23001 -2.36868,-1.63641 -0.32799,-3.80636 0.25294,-7.63398 1.67249,-11.18035 1.41648,-4.85008 5.48127,-8.22271 9.50006,-10.94769 0.60088,-0.49681 3.97033,-2.48938 1.89004,-1.56698 -1.7029,0.67908 -3.46559,1.23974 -4.87684,2.46881 -4.22081,2.81483 -8.58231,6.24176 -10.13152,11.30012 -1.28262,3.28053 -2.0375,6.74665 -1.87577,10.28335 -0.62402,1.78372 1.48377,3.98207 0.89977,5.12321 -0.70006,0.50836 -1.40012,1.01672 -2.10018,1.52508 9.79964,-0.41267 19.40708,2.79602 29.20711,2.0052 6.16005,-0.85371 12.21668,-2.64454 17.69133,-5.6302 3.32184,-0.7456 6.37151,-2.55238 8.54845,-5.17113 1.33545,-1.0137 2.188,-1.77941 0.26426,-0.84506 0.89678,-1.83025 1.21669,-3.95472 -0.0126,-5.76874 -1.90572,-4.59546 -5.05064,-8.53651 -8.25794,-12.2813 -1.91473,-2.39366 -4.76592,-3.5693 -7.18839,-5.30595 -1.56932,-2.00645 -2.76831,-4.37325 -5.06468,-5.71649 -1.32702,-0.92386 -2.8829,-1.57613 -4.52929,-1.43086 z m 21.33593,31.95312 c -0.0488,0.15798 -0.73139,0.28254 0,0 z"
       style="fill:#000000;fill-opacity:1;fill-rule:nonzero;stroke:none" />
    <path
       id="path3191"
       d="m 731.15328,308.22152 c 4.11039,-3.81267 9.23337,-6.26517 13.71386,-9.59109 2.55185,-1.82258 6.02974,-3.26441 9.01096,-1.55476 8.8077,3.68 17.61404,7.3644 26.43327,11.01874 8.12175,3.33129 15.96033,7.28576 23.87915,11.05505 3.52769,1.57785 7.11129,3.03203 10.74933,4.33602 -1.06379,0.71483 -2.12757,1.42965 -3.19136,2.14448 -13.65257,-4.84279 -26.21882,-12.21133 -39.7221,-17.42281 -7.47003,-3.0946 -14.97397,-6.10655 -22.44474,-9.19937 -1.10362,-0.28773 -5.28123,0.21078 -2.18792,-1.06872 -4.22683,3.06194 -8.80369,5.65293 -12.89367,8.89446 -1.06785,0.57422 -2.26247,0.85058 -3.34678,1.388 z"
       style="fill:#000000;fill-opacity:1;fill-rule:nonzero;stroke:none" />
    <path
       id="path3193"
       d="m 752.84598,301.07583 c 13.10263,11.61037 25.85496,23.64043 39.51146,34.60787 7.1702,5.82517 15.40317,10.17328 23.95474,13.59512 -1.06032,0.70577 -2.12064,1.41153 -3.18096,2.1173 -8.7076,-3.66851 -17.17939,-8.07971 -24.50266,-14.11071 -10.05878,-8.10453 -19.38983,-17.06048 -29.26601,-25.38219 -3.35272,-2.86929 -6.6829,-5.76591 -10.09643,-8.56316 1.19329,-0.75474 2.38657,-1.50949 3.57986,-2.26423 z"
       style="fill:#000000;fill-opacity:1;fill-rule:nonzero;stroke:none" />
    <path
       id="path3195"
       d="m 751.35108,308.24222 c 8.61692,11.6992 16.99457,23.57796 25.8886,35.07259 7.71396,9.90984 15.11486,20.16306 24.22444,28.87043 -1.15637,0.70806 -2.31274,1.41611 -3.46911,2.12417 -11.66563,-11.92381 -21.07886,-25.7709 -31.19601,-38.97183 -6.31204,-8.32442 -12.44085,-16.79764 -19.066,-24.8782 1.20603,-0.73905 2.41205,-1.47811 3.61808,-2.21716 z"
       style="fill:#000000;fill-opacity:1;fill-rule:nonzero;stroke:none" />
    <path
       id="path3197"
       d="m 748.44727,304.20508 c -1.23177,0.6875 -2.46355,1.375 -3.69532,2.0625 1.65734,3.27297 2.38362,6.90723 3.72266,10.30664 0.0678,1.78392 1.9485,4.02656 2.60599,6.03232 4.42126,9.06673 6.89503,18.90172 10.80531,28.17025 4.18299,8.90822 8.36876,17.82877 13.03122,26.49671 1.65939,2.81121 3.31299,5.65672 5.41295,8.16791 1.0957,-0.84505 2.19141,-1.69011 3.28711,-2.53516 -6.55153,-7.98819 -10.50998,-17.64569 -15.07822,-26.81551 -3.07105,-6.20818 -5.72843,-12.60633 -7.88954,-19.18836 -2.29398,-6.75071 -4.78739,-13.43922 -7.77834,-19.91605 -0.1837,-1.59951 -1.36775,-3.57878 -1.78206,-5.34563 -0.81176,-2.50153 -1.55097,-5.03637 -2.64176,-7.43562 z"
       style="fill:#000000;fill-opacity:1;fill-rule:nonzero;stroke:none" />
    <path
       d="m 731.09602,313.19825 c 0.85494,-1.60201 2.0672,-2.96281 3.17259,-4.38955 1.85804,-2.37517 4.64017,-3.66774 7.30529,-4.97278 1.71219,-0.76752 3.36771,-0.75551 4.97049,-1.06718 l -3.35629,2.52669 c -1.31065,-0.10001 -2.74714,0.44645 -3.74831,0.70557 -1.06737,1.41311 -3.63331,3.88014 -4.47976,5.44905 z"
       id="path3199"
       style="fill:#000000;fill-opacity:1;fill-rule:nonzero;stroke:none" />
    <path
       id="path3203"
       d="m 457.62317,276.86118 c -5.54857,-0.36198 -11.12392,-0.1184 -16.67821,-0.15078 -4.28712,0.55781 -8.66414,1.40625 -12.31026,3.88436 1.12361,-0.64227 4.59048,-2.94103 1.8742,-1.01339 -3.17036,2.30305 -5.42141,5.6184 -6.69977,9.29753 -1.86921,4.69313 -1.26489,9.8409 -1.30771,14.76906 0.2746,3.75626 1.24096,7.56584 3.70501,10.51308 3.0555,4.65399 8.75729,6.18589 13.82941,7.51512 2.81265,0.61535 5.67719,1.14563 8.56224,0.71379 2.7648,-0.15402 5.6913,-0.004 8.12513,-1.57405 1.60249,-0.77382 5.01859,-2.91916 5.31994,-3.02001 -1.09624,0.6626 -3.99776,2.50233 -1.42372,0.86439 4.0975,-2.90657 8.29229,-6.77501 8.8111,-12.07667 0.99627,-3.97227 0.81226,-8.07794 0.98477,-12.13048 0.73539,-3.54069 0.26503,-7.22732 -0.62413,-10.6954 -2.45682,-3.70695 -6.55739,-5.97169 -10.89568,-6.63707 -0.42363,-0.0888 -0.84833,-0.17382 -1.27232,-0.25948 z m 15.11512,4.10869 c 1.60621,1.99494 2.04715,4.52398 2.13742,7.01323 0.34939,2.84061 -0.44896,5.64297 -0.21326,8.49244 -0.0757,4.03042 -0.60959,8.10699 -1.9008,11.93025 -2.43165,5.04264 -7.24302,8.27497 -11.90275,11.05851 -3.59778,2.08195 -7.02546,4.73715 -11.12518,5.72884 -3.00931,0.1532 -6.04348,0.55844 -9.05544,0.36035 -5.12909,-0.84376 -10.37804,-2.06313 -14.82629,-4.85368 -3.10958,-2.22596 -5.43031,-5.55087 -6.67852,-9.14483 -1.46347,-4.84999 -1.06167,-9.96416 -0.95549,-14.95476 0.30084,-4.28658 2.02124,-8.43486 4.50909,-11.90346 3.13806,-3.71026 7.44645,-6.12937 11.63137,-8.46557 3.54961,-1.74936 7.54632,-2.39813 11.45704,-2.67862 5.39071,0.1766 10.81348,-0.28322 16.18367,0.32212 4.06766,1.37619 7.84629,3.93405 10.73914,7.09518 z"
       style="fill:#000000;fill-opacity:1;fill-rule:nonzero;stroke:none" />
    <path
       id="path3205"
       d="m 405.61157,272.50598 c 0.82637,2.80336 0.55805,5.76467 1.11637,8.61759 0.10069,2.92196 -1.05625,5.89039 -3.00351,8.05217 -3.02559,2.52198 -6.58722,4.49347 -10.40064,5.51948 -2.87135,0.74012 -5.93919,0.58733 -8.69744,-0.51673 -4.07194,-1.3717 -8.18775,-3.29593 -10.91736,-6.74062 -2.35797,-3.26708 -3.46416,-7.39986 -3.21378,-11.40525 0.5061,-3.26835 2.04152,-6.30304 4.14604,-8.83457 2.21688,-3.06655 5.70212,-5.27973 9.472,-5.74039 3.01205,0.007 6.07777,-0.28155 9.05072,0.3119 2.90289,0.72159 5.28409,2.84653 7.00261,5.21721 1.65731,1.82271 3.69574,3.31571 5.23274,5.27418 l 0.21225,0.24503 0,0 z m -8.90748,-3.14638 c -1.35895,-2.07407 -3.32829,-3.83625 -5.61798,-4.80973 -3.03661,-1.0645 -6.31289,-0.53937 -9.46238,-0.66147 -1.03026,-0.20705 -3.42437,0.73975 -3.4391,0.77899 0.82297,-0.44067 2.79684,-1.69261 2.91669,-1.63488 -2.24662,1.60519 -3.81317,3.98695 -5.21147,6.32515 -1.21663,2.56153 -2.13625,5.42663 -1.52458,8.28256 0.48542,4.12045 2.47675,8.21557 6.02562,10.5295 2.31146,1.68447 5.02431,2.73394 7.71021,3.65783 2.16966,0.84411 4.51948,1.07468 6.81567,0.70014 1.47065,-0.17373 3.63743,-1.02617 3.748,-0.91351 0.70076,-0.35217 3.70432,-2.02111 1.63277,-0.80107 -0.89331,0.51251 -1.96808,1.19796 -2.76051,1.59405 1.84423,-1.09169 3.53966,-2.54913 4.351,-4.58895 1.02458,-2.04792 1.35111,-4.40214 0.86911,-6.64319 -0.36991,-2.28152 -0.10168,-4.70197 -0.96445,-6.87661 -1.2456,-2.07063 -3.45291,-3.23074 -5.0886,-4.93881 z"
       style="fill:#000000;fill-opacity:1;fill-rule:nonzero;stroke:none" />
    <path
       id="path3207"
       d="m 509.80939,302.71243 c 1.2078,4.08274 1.74202,8.32746 2.65462,12.47999 0.82795,4.27519 1.80398,8.53128 2.12598,12.88494 0.65061,5.02427 1.09219,10.13414 0.42079,15.18117 -0.23967,2.70619 -0.41956,5.45617 -1.14133,8.08328 -1.2601,0.59434 -2.5202,1.18869 -3.7803,1.78303 0.89333,-2.86021 0.92473,-5.90624 1.28518,-8.86503 0.71211,-5.08825 0.02,-10.22187 -0.55987,-15.28447 -0.35136,-5.14095 -1.64274,-10.14923 -2.58337,-15.20037 -0.72656,-3.01075 -1.08304,-6.1243 -2.15531,-9.04348 1.24454,-0.67302 2.48907,-1.34604 3.73361,-2.01906 z"
       style="fill:#000000;fill-opacity:1;fill-rule:nonzero;stroke:none" />
    <path
       id="path3216"
       d="m 602.7787,389.46894 c 2.04096,6.03089 1.64292,12.48378 1.93373,18.75045 0.11137,4.35023 -0.21806,8.71677 -1.16403,12.96938 -0.29567,1.60569 -0.56243,3.21662 -0.86942,4.82024 -0.83459,1.01276 -2.26377,1.14256 -3.30492,1.87032 -1.01474,0.40074 0.0638,-1.5933 -0.0383,-2.15084 1.03055,-5.05718 1.99072,-10.18387 1.77192,-15.37006 -0.0882,-4.77815 -0.089,-9.58618 -0.80686,-14.32109 -0.26557,-1.26453 -0.39418,-2.62478 -1.05132,-3.74108 0.0121,-1.57471 2.06153,-1.72214 3.03244,-2.54439 l 0.24843,-0.14147 0.24836,-0.14146 0,0 z"
       style="fill:#000000;fill-opacity:1;fill-rule:nonzero;stroke:none" />
    <path
       id="path3218"
       d="m 616.646,382.62196 c 1.36234,3.47861 1.92625,7.20275 2.47683,10.87798 0.68175,6.18133 0.22316,12.40877 0.24688,18.61037 -0.15823,1.41114 0.25841,3.16101 -0.20754,4.3719 -1.18054,0.60139 -2.36109,1.20278 -3.54163,1.80417 -0.0855,-6.48783 0.43807,-12.97121 0.22821,-19.45784 -0.15072,-3.74794 -0.83981,-7.45998 -1.78781,-11.08266 -0.29611,-1.03222 -0.65291,-2.04864 -1.10043,-3.02544 1.22847,-0.69949 2.45718,-1.39904 3.68549,-2.09848 z"
       style="fill:#000000;fill-opacity:1;fill-rule:nonzero;stroke:none" />
    <path
       id="path3220"
       d="m 629.799,374.34639 c 1.78582,3.44381 2.72764,7.2502 3.54294,11.02 1.13364,6.09177 1.36125,12.31499 1.32632,18.49646 -0.0843,1.2555 -0.3708,2.48455 -0.51476,3.73276 -1.25605,0.62036 -2.51209,1.24071 -3.76814,1.86107 0.24363,-1.90948 0.70797,-3.80408 0.56044,-5.74329 0.0478,-6.36174 -0.15871,-12.80703 -1.73219,-19.0026 -0.76746,-2.84068 -1.55364,-5.73257 -3.10005,-8.26591 1.22842,-0.69948 2.45733,-1.39909 3.68544,-2.09849 z"
       style="fill:#000000;fill-opacity:1;fill-rule:nonzero;stroke:none" />
    <path
       id="path3222"
       d="m 570.52416,449.23763 c 1.0278,5.49156 0.14998,11.07398 -0.3793,16.56951 -0.4747,3.45826 -0.38297,6.94964 -0.53607,10.42643 -0.32889,3.80561 -0.46503,7.61951 -0.47166,11.43785 -0.0338,2.38609 -0.2462,4.81273 0.1234,7.17294 0.65213,1.1939 -0.091,2.18383 -1.23496,2.53442 -0.74188,0.38913 -1.48376,0.77826 -2.22564,1.16739 -0.51427,-2.67244 -0.53659,-5.38772 -0.3634,-8.09222 0.0964,-4.32482 0.1063,-8.65927 0.53909,-12.96657 0.0252,-4.3752 0.16571,-8.7554 0.81593,-13.08797 0.24046,-2.89015 0.51677,-5.78832 0.56467,-8.68644 0.1842,-1.50373 -1.25013,-3.91743 0.22128,-4.89993 0.98222,-0.52513 1.96443,-1.0503 2.94666,-1.57541 z"
       style="fill:#000000;fill-opacity:1;fill-rule:nonzero;stroke:none" />
    <path
       d="m 457.61516,236.04485 c -6.8554,-0.21751 -13.68326,0.72298 -20.47458,1.531 -8.91395,1.29002 -17.82464,2.68177 -26.62962,4.59232 -2.59525,0.561 -5.19867,1.07166 -7.79198,1.64256 0,0 3.26957,-2.48294 3.26957,-2.48294 l 0,0 c 2.55206,-0.53533 5.11364,-1.01667 7.667,-1.54522 8.74828,-1.77279 17.58665,-3.07563 26.41293,-4.38852 6.95362,-0.86201 13.9283,-1.83594 20.94931,-1.82136 0,0 -3.40263,2.47216 -3.40263,2.47216 z"
       id="path3224"
       style="fill:#000000;fill-opacity:1;fill-rule:nonzero;stroke:none" />
    <path
       d="m 459.12513,231.04778 c -5.17173,-0.33556 -10.35101,-0.53617 -15.53362,-0.6794 -17.1998,-0.51228 -34.40227,-0.0575 -51.56381,1.12032 -7.11108,0.50296 -14.20696,1.15957 -21.29341,1.92801 0,0 2.90638,-2.15648 2.90638,-2.15648 l 0,0 c 6.98608,-0.6474 13.9794,-1.19228 20.97858,-1.6811 17.29184,-1.13637 34.61865,-1.57073 51.94806,-1.36523 5.32735,0.0323 10.64747,0.16677 15.96853,0.35586 0,0 -3.41071,2.47802 -3.41071,2.47802 z"
       id="path3226"
       style="fill:#000000;fill-opacity:1;fill-rule:nonzero;stroke:none" />
    <path
       id="path3228"
       d="m 472.30273,240.90545 c -2.45765,3.72843 -4.8248,7.51601 -7.15412,11.32551 -0.39401,0.62812 -0.74438,1.30424 -1.165,1.90281 -1.24001,0.54862 -2.48003,1.09723 -3.72004,1.64584 1.83513,-3.0321 3.73266,-6.02537 5.60006,-9.0376 0.86231,-1.38078 1.7247,-2.76153 2.57868,-4.14749 1.28681,-0.56302 2.57361,-1.12605 3.86042,-1.68907 z"
       style="fill:#000000;fill-opacity:1;fill-rule:nonzero;stroke:none" />
    <path
       id="path3230"
       d="m 455.0775,222.80388 c -5.64126,-5.93806 -11.90976,-11.23104 -17.77917,-16.93808 -2.21765,-2.31166 -4.85218,-4.47827 -8.1629,-4.85259 -7.46221,-1.37595 -14.94312,-2.65625 -22.48014,-3.56138 -6.93888,-1.05349 -13.85746,-2.27372 -20.84617,-2.94652 -1.8498,-0.36106 -6.06941,-0.80964 -6.33236,-0.56295 1.506,-0.72482 3.51287,-2.76457 2.83789,0.22099 1.21808,4.76421 4.67859,8.53291 7.63202,12.31654 4.3091,5.03115 10.28538,8.19271 16.11562,11.11395 3.79971,1.5867 7.8234,2.53387 11.70323,3.89619 -1.12975,0.76816 -2.2595,1.53633 -3.38925,2.30449 -5.40432,-1.78645 -11.09536,-2.97771 -15.95424,-6.09193 -6.23613,-3.17204 -11.70639,-7.823 -15.55583,-13.69332 -2.05117,-2.85709 -4.4283,-5.94847 -4.45599,-9.62398 1.86123,-2.43168 5.10129,-3.61851 8.10354,-2.69545 6.02755,0.89817 12.08812,1.56268 18.09602,2.6101 8.23041,1.29432 16.52781,2.13673 24.70727,3.74991 3.69357,0.39782 7.5314,1.40289 10.08296,4.29219 6.27851,6.24132 13.02531,11.99413 19.29556,18.24468 -1.20601,0.73905 -2.41208,1.47812 -3.61806,2.21716 z"
       style="fill:#000000;fill-opacity:1;fill-rule:nonzero;stroke:none" />
    <path
       d="m 541.57838,493.30795 c -0.66421,0.7818 -1.27023,1.60959 -1.89437,2.42293 -0.92244,1.29655 -1.98331,2.48074 -3.03645,3.66996 -1.19938,1.31359 -2.30977,2.70229 -3.33253,4.15674 -1.00211,1.53158 -2.01661,3.05504 -3.12292,4.51383 -1.09171,1.32322 -2.16386,2.65992 -3.15381,4.06137 -0.81423,1.24189 -1.57404,2.51793 -2.37319,3.76968 -0.49656,0.77946 -1.05384,1.516 -1.55817,2.29029 -0.44205,0.60579 -0.76151,1.2842 -1.09423,1.95245 -0.28575,0.58605 -0.57151,1.17214 -0.86351,1.75511 -0.27273,0.58223 -0.60016,1.13586 -0.91887,1.6935 -0.32691,0.56577 -0.60247,1.1586 -0.9263,1.7258 -0.32601,0.55627 -0.62661,1.12646 -0.98965,1.65984 -0.42269,0.56754 -0.79929,1.16687 -1.21872,1.73655 -0.063,0.0877 -0.12599,0.17544 -0.18899,0.26316 0,0 -2.93432,1.276 -2.93432,1.276 l 0,0 c 0.0628,-0.092 0.12549,-0.18397 0.18823,-0.27595 0.43322,-0.55597 0.80617,-1.15236 1.21628,-1.72499 0.3841,-0.51694 0.6884,-1.08031 1.00698,-1.63882 0.34364,-0.55552 0.60115,-1.15483 0.92433,-1.72211 0.32554,-0.54684 0.64602,-1.09935 0.9173,-1.67539 0.31041,-0.57816 0.58853,-1.17361 0.88198,-1.76047 0.34681,-0.66936 0.63157,-1.37818 1.08458,-1.98649 0.51781,-0.78614 1.0735,-1.54077 1.61332,-2.3119 0.82088,-1.26277 1.6217,-2.5377 2.43201,-3.8072 0.9683,-1.41634 2.03009,-2.76264 3.13971,-4.07104 1.12419,-1.44724 2.15616,-2.96035 3.14097,-4.50551 1.00413,-1.46896 2.10587,-2.86912 3.30601,-4.18386 1.0355,-1.18301 2.10325,-2.34183 3.00617,-3.6332 0.59344,-0.78577 1.15678,-1.59421 1.7683,-2.36614 0,0 2.97986,-1.28414 2.97986,-1.28414 z"
       id="path3238"
       style="fill:#000000;fill-opacity:1;fill-rule:nonzero;stroke:none" />
    <path
       d="m 547.62671,497.36089 c -0.80465,0.62798 -1.58695,1.28564 -2.35526,1.9577 -1.10376,1.00406 -2.17454,2.04254 -3.29974,3.02303 -0.95504,0.79936 -1.88857,1.62255 -2.79786,2.47344 -0.90398,0.94283 -1.72232,1.96158 -2.6178,2.91201 -1.05898,1.02583 -2.07701,2.08877 -3.05074,3.19559 -0.83544,0.98947 -1.52914,2.08425 -2.23904,3.16398 -0.67243,0.95996 -1.22358,1.99327 -1.73206,3.04678 -0.50066,1.09021 -1.0045,2.17617 -1.59133,3.22292 -0.58048,0.94563 -1.13166,1.90822 -1.67167,2.87744 -0.42437,0.81435 -0.91164,1.59295 -1.36702,2.38973 -0.26875,0.49766 -0.49783,1.00873 -0.62387,1.56081 -0.0528,0.33005 -0.024,0.16207 -0.0871,0.50388 0,0 -2.89705,1.4011 -2.89705,1.4011 l 0,0 c 0.0779,-0.326 0.0478,-0.15889 0.0887,-0.50163 0.1053,-0.59212 0.32089,-1.13447 0.60554,-1.66415 0.456,-0.81009 0.99028,-1.57452 1.4099,-2.4056 0.53815,-0.97468 1.0817,-1.94737 1.68223,-2.88524 0.59458,-1.03873 1.114,-2.11241 1.60408,-3.2045 0.50169,-1.06469 1.02575,-2.12487 1.7132,-3.0849 0.71753,-1.09514 1.42677,-2.19765 2.25181,-3.21674 0.97117,-1.1095 1.96796,-2.19379 3.04185,-3.20585 0.9025,-0.93395 1.7136,-1.94832 2.5806,-2.91467 0.91484,-0.86697 1.85454,-1.70635 2.83237,-2.50213 1.12808,-0.96403 2.19719,-1.99026 3.27562,-3.00887 0.73296,-0.65769 1.4936,-1.28139 2.22958,-1.93507 0,0 3.0151,-1.19906 3.0151,-1.19906 z"
       id="path3240"
       style="fill:#000000;fill-opacity:1;fill-rule:nonzero;stroke:none" />
    <path
       id="path3242"
       d="m 551.96912,462.18546 c -0.50051,2.27318 -0.83692,4.58423 -1.15522,6.8896 -0.20256,2.86623 -0.28893,5.75284 -0.91943,8.56815 -0.70449,3.79737 -1.34465,7.634 -1.24893,11.51072 10e-4,2.22619 0.056,4.45204 0.0388,6.67834 -0.95614,0.48717 -1.91228,0.97435 -2.86842,1.46152 0.0373,-3.40127 -0.0534,-6.80742 0.12973,-10.20467 0.35847,-3.91363 1.19265,-7.7613 1.76222,-11.64517 0.29102,-2.96204 0.2663,-5.9568 0.89916,-8.87938 0.23605,-0.98155 0.14503,-2.1866 0.55828,-3.03597 0.93457,-0.44771 1.86929,-0.89545 2.80377,-1.34314 z"
       style="fill:#000000;fill-opacity:1;fill-rule:nonzero;stroke:none" />
    <path
       id="path3244"
       d="m 568.67706,499.13152 c 2.6541,2.89747 5.90784,5.2033 8.29736,8.35295 2.26809,2.75843 4.73093,5.34812 7.10428,8.01484 3.25365,3.45471 7.3347,6.19174 9.80415,10.32966 0.42497,1.19919 1.66967,2.51006 1.87612,3.50981 -0.87629,0.51555 -1.75257,1.03109 -2.62886,1.54664 -1.35686,-1.82745 -2.04238,-4.06933 -3.61764,-5.74819 -3.2276,-3.94083 -7.36147,-7.01238 -10.6772,-10.87618 -3.45202,-3.8101 -6.53351,-7.99028 -10.51607,-11.28527 -0.49871,-0.75908 -2.55603,-1.65459 -2.11571,-2.32845 0.82453,-0.50527 1.64905,-1.01054 2.47357,-1.51581 z"
       style="fill:#000000;fill-opacity:1;fill-rule:nonzero;stroke:none" />
    <path
       id="path3246"
       d="m 575.49122,497.18688 c 1.85326,3.45552 4.82239,6.08563 7.64648,8.72765 2.80368,2.94744 5.56425,5.96204 8.67492,8.59173 2.36207,1.81371 4.49535,3.93832 7.11779,5.3941 1.83682,1.23679 3.71362,2.40856 5.55972,3.62961 0.52188,0.52232 2.16988,1.02946 0.83718,1.4932 -0.66486,0.42528 -1.32973,0.85057 -1.99459,1.27585 -4.10541,-3.04903 -8.75051,-5.34362 -12.54177,-8.81742 -2.63223,-2.08882 -5.08836,-4.38211 -7.38195,-6.83671 -1.99796,-2.1631 -4.06705,-4.25434 -6.21329,-6.27024 -1.72892,-1.67228 -3.18822,-3.58938 -4.52773,-5.58026 0.94108,-0.53584 1.88216,-1.07167 2.82324,-1.60751 z"
       style="fill:#000000;fill-opacity:1;fill-rule:nonzero;stroke:none" />
    <path
       d="m 573.47528,569.58966 c 0.39216,0.46328 0.8473,0.8625 1.28757,1.27708 0.52444,0.46075 1.07093,0.88547 1.6507,1.27456 0.71823,0.48717 1.50198,0.87553 2.29138,1.23363 0.59035,0.27599 1.10733,0.6774 1.67137,0.99983 0,0 -2.69222,1.74377 -2.69222,1.74377 l 0,0 c -0.54344,-0.33412 -1.0613,-0.71341 -1.64113,-0.98447 -0.78466,-0.38992 -1.56688,-0.79366 -2.2939,-1.28468 -0.60381,-0.39081 -1.18875,-0.80681 -1.71306,-1.30194 -0.44116,-0.42274 -0.88714,-0.84073 -1.33227,-1.25936 0,0 2.77156,-1.69842 2.77156,-1.69842 z"
       id="path3248"
       style="fill:#000000;fill-opacity:1;fill-rule:nonzero;stroke:none" />
    <path
       id="path3254"
       d="m 727.26664,458.54854 c 1.13979,2.28253 3.10952,4.36608 2.98983,7.09666 0.35021,2.95316 -1.54857,5.39967 -2.55568,8.0096 -0.7228,2.01769 -0.30226,4.10483 -0.22998,6.17253 0.0508,1.99347 0.0181,3.9867 -0.21071,5.96542 0.19927,1.98488 -0.23097,3.98149 0.1485,5.96008 0.13372,2.22197 -0.19142,4.45988 0.27013,6.66129 0.42899,2.67491 0.97596,5.39538 2.12076,7.85502 0.87212,0.36528 0.90076,0.36538 0.15681,0.81938 -0.65775,0.46604 -1.31549,0.93209 -1.97324,1.39813 -1.65659,-0.49405 -1.6265,-2.60981 -2.17708,-3.97586 -0.86242,-3.22854 -1.45325,-6.57905 -1.18591,-9.93041 -0.0394,-1.97321 -0.38733,-3.93192 -0.14363,-5.90812 -0.20064,-1.59492 0.15156,-3.16821 0.13743,-4.76468 0.0235,-1.942 0.0411,-3.88908 -0.24927,-5.81234 -0.0288,-2.11262 0.68755,-4.12036 1.72564,-5.93038 0.92821,-1.78553 1.56999,-3.75497 1.2761,-5.79213 -0.15886,-2.3854 -1.87174,-4.19287 -2.92217,-6.2168 0.94034,-0.53563 1.88454,-1.07261 2.82247,-1.60739 z"
       style="fill:#000000;fill-opacity:1;fill-rule:nonzero;stroke:none" />
    <path
       id="path3256"
       d="m 690.88935,415.39494 c 0.48165,2.1943 0.96966,4.38334 1.51396,6.56484 0.57231,1.941 0.98078,3.93434 1.86885,5.76819 0.63589,1.46034 1.24034,2.9311 1.73984,4.44297 1.10552,2.25111 2.64922,4.3055 4.64272,5.84456 1.23292,1.11545 2.63742,2.13032 3.3345,3.70038 0.95335,1.3558 1.44167,2.96587 1.69736,4.58522 -0.11429,2.04191 -1.17598,4.12926 -3.0714,5.05331 -1.54816,0.90626 -3.14804,1.76208 -4.91345,2.15229 0.26595,-0.64738 0.29703,-1.53081 1.20937,-1.55694 0.8448,-0.1993 1.62344,-0.50328 2.28285,-1.07652 0.61962,-0.3575 1.13698,-0.82331 1.27583,-1.56567 0.6421,-1.29658 0.18694,-2.65296 -0.20501,-3.93117 -0.46913,-1.26165 -1.23192,-2.41216 -1.99143,-3.5173 -1.93637,-2.03181 -4.47279,-3.54276 -5.86326,-6.05967 -0.90263,-1.31945 -1.55534,-2.77562 -1.97282,-4.31543 -0.96663,-2.39639 -2.06243,-4.75095 -2.63824,-7.28276 -0.49987,-1.81412 -0.96515,-3.63934 -1.30327,-5.48748 -0.1754,-0.80881 -0.90823,-1.92892 0.27248,-2.17176 0.70704,-0.38235 1.41408,-0.76471 2.12112,-1.14706 z"
       style="fill:#000000;fill-opacity:1;fill-rule:nonzero;stroke:none" />
    <path
       id="path3258"
       d="m 725.9679,414.96083 c -0.3937,2.30736 -0.81119,4.6292 -0.80578,6.98086 -0.33469,3.63192 -0.0886,7.28816 -0.43625,10.91935 -0.15493,3.14776 0.16558,6.32371 -0.46881,9.43639 -0.35194,2.75381 -0.32213,5.54276 -0.16021,8.30794 -0.0339,1.84411 0.14183,3.67772 0.53636,5.47694 0.1939,0.94797 0.20953,1.87763 -0.87833,2.10191 -0.63903,0.32599 -1.27807,0.65197 -1.9171,0.97796 0.10614,-2.08389 -0.70293,-4.08056 -0.54175,-6.17071 -0.005,-2.00575 -0.24929,-4.00113 -0.0692,-6.00618 -0.0761,-2.99158 0.80739,-5.91677 0.64045,-8.91417 -0.0702,-3.27788 0.31839,-6.53951 0.2748,-9.81604 0.035,-2.64129 0.18218,-5.27911 0.31262,-7.91495 0.23577,-1.31848 0.40066,-2.64743 0.58086,-3.97457 0.97741,-0.46824 1.95508,-0.93653 2.93233,-1.40473 z"
       style="fill:#000000;fill-opacity:1;fill-rule:nonzero;stroke:none" />
    <path
       id="path3262"
       d="m 671.638,351.20299 c -3.81211,8.2612 -7.44482,16.61855 -11.87131,24.57613 -1.50935,3.58234 -2.72983,7.40888 -2.35883,11.344 -0.68914,3.02001 0.88978,5.58528 3.743,6.62266 4.77632,2.81794 9.84791,5.0433 14.98979,7.09289 5.4729,2.75489 11.33942,4.55243 16.9842,6.88732 4.84034,2.49259 9.72738,4.96452 14.79953,6.94099 1.39766,0.81234 6.83706,1.01552 3.47363,2.54741 -1.23008,0.74015 -2.35422,2.2735 -3.87754,1.05485 -8.536,-2.35865 -15.81151,-7.79345 -24.2645,-10.39052 -5.86048,-2.23239 -11.54555,-4.90131 -17.34338,-7.2903 -4.08389,-2.01035 -8.36457,-3.87484 -11.91869,-6.75316 -1.14726,-2.65101 -0.40332,-5.69365 -0.60088,-8.51897 0.80128,-5.02333 3.16717,-9.5851 5.72796,-13.91777 3.0116,-6.02124 5.72995,-12.30453 8.51928,-18.34665 1.33258,-0.61629 2.66515,-1.23262 3.99774,-1.84888 z"
       style="fill:#000000;fill-opacity:1;fill-rule:nonzero;stroke:none" />
    <ellipse
       ry="3.2142856"
       rx="3.9285715"
       cy="281.59448"
       cx="381.78571"
       id="path3264"
       style="fill:#000000;fill-rule:evenodd;stroke:#000000;stroke-width:1px;stroke-linecap:butt;stroke-linejoin:miter;stroke-opacity:1" />
    <circle
       r="7.5"
       cy="295.88019"
       cx="448.92856"
       transform="translate(6.4285718,12.857143)"
       id="path3266"
       style="fill:#000000;fill-rule:evenodd;stroke:#000000;stroke-width:1px;stroke-linecap:butt;stroke-linejoin:miter;stroke-opacity:1" />
    <path
       d="m 491.32283,556.02567 c 1.4527,0.57727 2.91685,1.10272 4.29064,1.8576 1.70867,0.9347 3.40075,1.89463 5.06409,2.90925 1.94572,1.2254 3.86605,2.48185 5.9179,3.52518 2.22814,1.19829 4.60842,2.05187 6.93906,3.01659 1.6829,0.71358 3.48426,1.04634 5.25843,1.44565 1.82811,0.25463 3.63982,0.58477 5.46467,0.86685 1.84486,0.22079 3.68422,0.28498 5.51597,0.60135 1.50726,0.40523 2.9556,0.25327 4.46923,0.049 1.45337,-0.0553 2.84196,-0.39731 4.26097,-0.67264 0.97334,-0.0797 1.89957,-0.3251 2.84313,-0.55804 0,0 -7.23531,5.5192 -7.23531,5.5192 l 0,0 c -0.94857,0.21682 -1.90694,0.36079 -2.86412,0.53326 -1.42426,0.29435 -2.85504,0.48205 -4.30352,0.61607 -1.55328,0.16515 -3.0657,0.0723 -4.59401,-0.27697 -1.82252,-0.28759 -3.67069,-0.30471 -5.49117,-0.61337 -1.83829,-0.30533 -3.68659,-0.54684 -5.51433,-0.90498 -1.79941,-0.4184 -3.61069,-0.80301 -5.28903,-1.60911 -2.34343,-0.97703 -4.70629,-1.91367 -6.95615,-3.09901 -2.05417,-1.098 -4.03869,-2.309 -6.02367,-3.52593 -1.65432,-0.999 -3.31687,-1.9809 -5.04196,-2.85464 -1.41863,-0.70203 -2.91553,-1.19885 -4.38724,-1.77449 0,0 7.67642,-5.05082 7.67642,-5.05082 z"
       id="path3276"
       style="fill:#000000" />
    <path
       id="path3282"
       d="m 491.14948,255.36326 c 4.88391,-5.95316 10.6713,-11.09902 16.63186,-15.94103 l 38.7071,-21.66037 c -17.35982,11.31143 -28.33277,22.04869 -32.8036,26.55283 -0.95352,1.40082 -2.2485,2.51034 -3.87873,3.00873 z"
       style="fill:#000000" />
    <path
       d="m 520.36612,273.58321 c 1.35278,-1.73696 3.18889,-3.07078 5.08283,-4.16604 8.36618,-4.83818 6.27988,-3.7624 12.00961,-6.45892 8.36799,-3.53927 16.93003,-6.58479 25.25117,-10.23606 6.82749,-3.22122 13.75665,-6.20507 20.83665,-8.82478 4.83824,-1.50978 9.70819,-2.9067 14.5342,-4.4561 1.77451,-0.6377 0.92953,-0.33447 2.53487,-0.90989 0,0 -6.08854,4.74002 -6.08854,4.74002 l 0,0 c -1.51923,0.5012 -0.71661,0.24 -2.40861,0.78131 -4.70931,1.40012 -9.45536,2.67672 -14.12984,4.19134 -6.97276,2.5727 -13.79058,5.51789 -20.53614,8.63662 -8.4213,3.60451 -17.06424,6.66509 -25.42618,10.41123 -3.62498,1.79809 -5.5483,2.86993 0.28973,-0.54611 0.63832,-0.3735 -1.26868,0.762 -1.88003,1.17819 -0.9456,0.64373 -1.5437,1.12549 -2.31243,1.91362 -0.17148,0.1758 -0.31867,0.37376 -0.47801,0.56065 0,0 -7.27928,3.18492 -7.27928,3.18492 z"
       id="path3284"
       style="fill:#000000" />
    <path
       id="path3292"
       d="m 513.07081,357.25538 c 1.36083,14.4702 4.46929,28.67184 7.40866,42.87818 2.01949,9.9596 2.44572,20.32299 6.35424,29.81563 -0.95304,5.25999 4.89704,5.69235 8.08253,8.18443 6.78588,3.95322 13.954,7.61913 19.29025,13.52712 3.44301,2.99704 7.31921,5.52123 11.36016,7.62928 -2.7224,1.79604 -5.44481,3.59207 -8.16721,5.38811 -6.13646,-2.78038 -10.97372,-7.55215 -15.86726,-12.04442 -6.85277,-5.47162 -14.8608,-9.25846 -22.4851,-13.44185 -0.97613,-4.72945 -2.32516,-9.71485 -3.35087,-14.598 -1.63886,-12.04434 -3.39106,-24.09574 -6.46425,-35.87431 -2.21289,-8.82504 -3.02021,-17.92317 -4.95833,-26.79721 2.93239,-1.55565 5.86479,-3.11131 8.79718,-4.66696 z"
       style="fill:#000000" />
    <path
       id="path4125"
       d="m 370.05194,326.85385 20.29958,21.38895 -22.52538,19.87002 34.08395,-19.49121 -29.56614,-23.76333 z"
       style="fill:#000000;stroke:none" />
  </g>
</svg>
